<?xml version="1.0" encoding="utf-8"?>
<!-- Generator: Adobe Illustrator 16.0.4, SVG Export Plug-In . SVG Version: 6.00 Build 0)  -->
<!DOCTYPE svg PUBLIC "-//W3C//DTD SVG 1.1//EN" "http://www.w3.org/Graphics/SVG/1.1/DTD/svg11.dtd">
<svg version="1.1" id="Ebene_1" xmlns="http://www.w3.org/2000/svg" xmlns:xlink="http://www.w3.org/1999/xlink" x="0px" y="0px"
	 width="14px" height="14px" viewBox="0 0 14 14" enable-background="new 0 0 14 14" xml:space="preserve">
<g>
	<path d="M11.145,3.48c0.864,1.011,1.297,2.185,1.297,3.523c0,1.495-0.535,2.774-1.605,3.84s-2.351,1.598-3.84,1.598
		s-2.769-0.535-3.836-1.605S1.559,8.488,1.559,7.004c0-1.474,0.505-2.734,1.516-3.781l-1.5-0.672l3.727-0.992L4.309,5.293
		L3.621,3.77c-0.864,0.912-1.297,1.99-1.297,3.234c0,1.281,0.458,2.38,1.375,3.297s2.016,1.375,3.297,1.375s2.38-0.458,3.297-1.375
		s1.375-2.016,1.375-3.297c0-1.151-0.372-2.164-1.117-3.039L11.145,3.48z"/>

	<animateTransform attributeType="xml"
                    attributeName="transform"
                    type="rotate"
                    from="0 7 7"
                    to="360 7 7"
                    dur="2s"
                    repeatCount="indefinite"/>
</g>
</svg>
